<svg xmlns="http://www.w3.org/2000/svg" width="24" height="24"
     viewBox="0 0 24 24" fill="none" stroke="currentColor"
     stroke-width="2" stroke-linecap="round" stroke-linejoin="round"
     class="svg-icon lucide-sources-icon">
  <path d="M6.2 4.8c-1.4 0-2.2 0.9-2.2 2.2v5c0 0.7 0.5 1.2 1.2 1.2s1.1 0.5 1.1 1.1v.8c0 .9-.7 1.6-1.6 1.6-.7 0-1.1.5-1.1 1.1v1.1c0 .6.4 1 1 1 3.4 0 5.6-2.6 5.6-6.1V7c0-1.3-.9-2.2-2.2-2.2h-.8z"/>
  <path d="M16.2 4.8c-1.4 0-2.2 0.9-2.2 2.2v5c0 0.7 0.5 1.2 1.2 1.2s1.1 0.5 1.1 1.1v.8c0 .9-.7 1.6-1.6 1.6-.7 0-1.1.5-1.1 1.1v1.1c0 .6.4 1 1 1 3.4 0 5.6-2.6 5.6-6.1V7c0-1.3-.9-2.2-2.2-2.2h-.8z"/>
</svg>
